# xmcd
#
# Track frame offsets:
# 150
# 20255
# 40072
# 62640
# 82410
# 102382
# 123490
# 144600
# 165440
# 190492
# 213650
# 238802
# 261817
# 285080
# 308825
#
# Disc length: 4450 seconds
#
#
# Revision: 0
# Processed by: cddbd v1.5.1PL0 Copyright (c) Steve Scherf et al.
# Submitted via: FreeRIP 2.80 
#
DISCID=d811600f
DTITLE=Iklim - Emas Masterpiece
DYEAR=1900
DGENRE=
TTITLE0=Suci Dalam Debu
TTITLE1=Hakikat Sebuah Cinta
TTITLE2=Gerhana Cinta Luka
TTITLE3=Mahligai Seribu Mimpi
TTITLE4=Bulan Jatuh Ke Riba
TTITLE5=Sheilla
TTITLE6=Selamat Tinggal Penderitaan
TTITLE7=Satu Kesan Abadi
TTITLE8=Aduhai! Seribu Kali Sayang
TTITLE9=Budi
TTITLE10=Elusan Cinta
TTITLE11=Blues Terengganu Kita
TTITLE12=Seribu Penghargaan
TTITLE13=Mimpi Yang Pulang
TTITLE14=Bukan Aku Tak Cinta
EXTD=
EXTT0=
EXTT1=
EXTT2=
EXTT3=
EXTT4=
EXTT5=
EXTT6=
EXTT7=
EXTT8=
EXTT9=
EXTT10=
EXTT11=
EXTT12=
EXTT13=
EXTT14=
PLAYORDER=
